<svg xmlns="http://www.w3.org/2000/svg" xml:space="preserve" width="2519px" height="497px" version="1.1" style="shape-rendering:geometricPrecision; text-rendering:geometricPrecision; image-rendering:optimizeQuality; fill-rule:evenodd; clip-rule:evenodd" viewBox="0 0 2519 497" xmlns:xlink="http://www.w3.org/1999/xlink"> <path fill="#FEFEFE" fill-rule="nonzero" class="fil0" d="M2456 287c13,0 25,-6 35,-15l0 0c9,-10 15,-22 15,-35 0,-15 -6,-28 -15,-37l0 0c-10,-9 -22,-16 -35,-16 -15,0 -28,7 -37,16l0 0c-9,9 -16,22 -16,37 0,13 7,25 16,35l0 0c9,9 22,15 37,15zm44 -6l0 0 0 0c-12,13 -28,19 -44,19 -18,0 -34,-6 -46,-19l0 0 0 0c-13,-12 -19,-28 -19,-44 0,-18 6,-34 19,-46l0 0 0 0c12,-13 28,-19 46,-19 16,0 32,6 44,19l0 0 0 0c13,12 19,28 19,46 0,16 -6,32 -19,44zm-2094 210l-150 -454 -106 0 -150 454 91 0 34 -107 156 0 35 107 90 0zm-143 -172l-119 0 47 -153c6,-25 12,-57 12,-57l0 0c0,0 6,32 13,57l47 153zm368 -169c-12,-3 -28,-3 -43,-3 -57,0 -104,9 -138,25l0 319 84 0 0 -269c10,-3 25,-6 41,-6 16,0 28,0 41,3l15 -69zm266 325l-25 -63c-13,10 -31,13 -50,13 -41,0 -75,-34 -75,-103 0,-72 31,-106 75,-106 19,0 37,6 50,15l25 -62c-22,-13 -50,-22 -88,-22 -81,0 -153,56 -153,175 0,119 72,175 153,175 38,0 66,-6 88,-22zm334 -175c0,-94 -53,-153 -143,-153 -100,0 -157,72 -157,175 0,103 57,175 169,175 47,0 97,-9 125,-22l-25 -66c-25,13 -59,22 -94,22 -50,0 -84,-25 -93,-75l215 -28c3,-9 3,-19 3,-28zm-84 -16l-141 19c3,-62 35,-94 78,-94 41,0 63,25 63,75zm428 191l0 -475 -87 0 0 156c-10,-3 -28,-6 -47,-6 -103,0 -156,72 -156,175 0,109 59,172 165,172 53,0 100,-9 125,-22l0 0zm-87 -50c-7,3 -22,6 -38,6 -53,0 -81,-40 -81,-109 0,-63 28,-106 81,-106 16,0 31,3 38,6l0 203 0 0zm256 -372c0,-25 -22,-44 -50,-44 -25,0 -47,19 -47,44 0,25 22,47 47,47 28,0 50,-22 50,-47zm-6 438l0 -338 -85 0 0 338 85 0zm368 -169c0,-100 -53,-175 -150,-175 -100,0 -153,75 -153,175 0,100 53,175 153,175 97,0 150,-75 150,-175zm-84 0c0,65 -22,106 -66,106 -46,0 -68,-41 -68,-106 0,-69 22,-110 68,-110 44,0 66,41 66,110zm331 -172c-12,-3 -25,-3 -43,-3 -54,0 -104,9 -138,25l0 319 84 0 0 -269c13,-3 29,-6 44,-6 13,0 28,0 38,3l15 -69zm78 116l0 -60 25 0c7,0 13,0 16,0 3,3 3,3 6,6 3,4 3,7 3,10 0,6 -3,9 -3,12 -3,3 -9,3 -12,7 3,0 3,3 6,3 0,3 3,6 6,9l7 13 -13 0 -9 -13c-3,-6 -7,-9 -7,-9 0,0 -3,-3 -3,-3 -3,0 -3,0 -6,0l-3 0 0 25 -13 0 0 0zm13 -35l9 0c7,0 10,0 10,0 3,0 3,-3 3,-3 3,0 3,-3 3,-3 0,-3 0,-6 -3,-6 0,0 0,-3 -3,-3 0,0 -3,0 -10,0l-9 0 0 15 0 0z"/></svg>